<svg width="25" height="41" viewBox="0 0 25 41" fill="none" xmlns="http://www.w3.org/2000/svg">
<rect x="11.1779" y="1.98136" width="2.6302" height="37.4803" rx="1.3151" stroke="white" stroke-width="2.6302"/>
<rect x="0.98963" y="-0.983027" width="1.97265" height="23.0142" rx="0.986325" transform="matrix(0.00335685 -0.999994 0.999994 0.00333804 1.96933 17.8491)" stroke="white" stroke-width="1.97265"/>
<rect width="2.6302" height="23.6718" rx="1.3151" transform="matrix(0.00335685 -0.999994 0.999994 0.00333804 0.657715 17.1049)" fill="#407BB4"/>
<rect opacity="0.8" x="21.3941" y="30.062" width="1.97265" height="17.7538" rx="0.986325" transform="rotate(107.371 21.3941 30.062)" stroke="white" stroke-width="1.97265"/>
<rect opacity="0.8" x="21.6445" y="29.8348" width="2.6302" height="18.4114" rx="1.3151" transform="rotate(107.371 21.6445 29.8348)" fill="#407BB4"/>
<rect opacity="0.8" x="20.7218" y="7.58059" width="1.97265" height="16.4387" rx="0.986325" transform="rotate(89.4121 20.7218 7.58059)" stroke="white" stroke-width="1.97265"/>
<rect opacity="0.8" x="21.0403" y="7.24176" width="2.6302" height="17.0963" rx="1.3151" transform="rotate(89.4121 21.0403 7.24176)" fill="#407BB4"/>
<rect x="10.521" y="1.32382" width="3.9453" height="38.7954" rx="1.97265" fill="#407BB4"/>
</svg>
