<svg width="48" height="55" viewBox="0 0 48 55" fill="none" xmlns="http://www.w3.org/2000/svg">
<rect x="20.6006" y="1.67761" width="7.02062" height="51.5766" rx="3.51031" stroke="white" stroke-width="3"/>
<rect x="1.34836" y="-1.33884" width="2.68411" height="44.9137" rx="1.34205" transform="matrix(0.00469957 -0.999989 0.999997 0.00238432 2.99238 23.5568)" stroke="white" stroke-width="2.68411"/>
<rect width="3.57881" height="45.0927" rx="1.78941" transform="matrix(0.00469957 -0.999989 0.999997 0.00238432 1.56348 22.5449)" fill="#5B92CD"/>
<rect opacity="0.8" x="-1.92558" y="0.975921" width="2.79657" height="33.9513" rx="1.39829" transform="matrix(-0.401164 0.916006 -0.975934 -0.218066 41.6743 42.2475)" stroke="white" stroke-width="2.79657"/>
<rect opacity="0.8" width="3.72877" height="34.298" rx="1.86438" transform="matrix(-0.401164 0.916006 -0.975934 -0.218066 41.543 39.8658)" fill="#407BB4"/>
<rect opacity="0.8" x="-1.3228" y="1.35181" width="2.68423" height="32.387" rx="1.34211" transform="matrix(0.0143633 0.999897 -0.999973 0.00732878 41.6935 10.8944)" stroke="white" stroke-width="2.68423"/>
<rect opacity="0.8" width="3.57897" height="32.5662" rx="1.78949" transform="matrix(0.0143633 0.999897 -0.999973 0.00732878 40.3916 9.12451)" fill="#407BB4"/>
<rect x="21.2686" y="1.07227" width="6.41077" height="52.7872" rx="3.20539" fill="#407BB4"/>
</svg>
